HIERARCHY
ROOT Hips
{
	OFFSET 0.000000 0.000000 0.000000
	CHANNELS 6 Xposition Yposition Zposition Xrotation Yrotation Zrotation
	JOINT LeftUpLeg_virtual
	{
		OFFSET 0.000000 0.000000 0.000000
		CHANNELS 3 Xrotation Yrotation Zrotation
		JOINT LeftUpLeg
		{
			OFFSET 13.026900 -6.336304 -1.092800
			CHANNELS 3 Xrotation Yrotation Zrotation
			JOINT LeftLeg
			{
				OFFSET 0.524474 -46.096886 9.782700
				CHANNELS 3 Xrotation Yrotation Zrotation
				JOINT LeftFoot
				{
					OFFSET -0.524474 -53.427422 -12.948200
					CHANNELS 3 Xrotation Yrotation Zrotation
					JOINT LeftToeBase
					{
						OFFSET 0.192200 -14.009700 16.364100
						CHANNELS 3 Xrotation Yrotation Zrotation
						JOINT LeftToe_End
						{
							OFFSET -1.784700 -0.561700 9.474800
							CHANNELS 3 Xrotation Yrotation Zrotation
							End Site
							{
								OFFSET 0 0 0
							}
						}
					}
				}
			}
		}
	}
	JOINT RightUpLeg_virtual
	{
		OFFSET 0.000000 0.000000 0.000000
		CHANNELS 3 Xrotation Yrotation Zrotation
		JOINT RightUpLeg
		{
			OFFSET -12.883000 -6.336304 -1.092800
			CHANNELS 3 Xrotation Yrotation Zrotation
			JOINT RightLeg
			{
				OFFSET -0.524587 -46.096825 9.782800
				CHANNELS 3 Xrotation Yrotation Zrotation
				JOINT RightFoot
				{
					OFFSET 0.524587 -53.427383 -12.948300
					CHANNELS 3 Xrotation Yrotation Zrotation
					JOINT RightToeBase
					{
						OFFSET -0.192200 -14.009700 16.364100
						CHANNELS 3 Xrotation Yrotation Zrotation
						JOINT RightToe_End
						{
							OFFSET 1.784700 -0.561700 9.474800
							CHANNELS 3 Xrotation Yrotation Zrotation
							End Site
							{
								OFFSET 0 0 0
							}
						}
					}
				}
			}
		}
	}
	JOINT Spine_virtual
	{
		OFFSET 0.000000 0.000000 0.000000
		CHANNELS 3 Xrotation Yrotation Zrotation
		JOINT Spine
		{
			OFFSET 0.072000 7.257294 -0.789700
			CHANNELS 3 Xrotation Yrotation Zrotation
			JOINT Spine1
			{
				OFFSET 0.000000 12.508769 -0.658067
				CHANNELS 3 Xrotation Yrotation Zrotation
				JOINT Spine1_split
				{
					OFFSET 0.000000 12.508769 -0.658067
					CHANNELS 3 Xrotation Yrotation Zrotation
					JOINT Spine2
					{
						OFFSET 0.000000 12.508769 -0.658067
						CHANNELS 3 Xrotation Yrotation Zrotation
						JOINT Neck_virtual
						{
							OFFSET 0.000000 0.000000 0.000000
							CHANNELS 3 Xrotation Yrotation Zrotation
							JOINT Neck
							{
								OFFSET 0.000000 14.033295 7.520400
								CHANNELS 3 Xrotation Yrotation Zrotation
								JOINT Head
								{
									OFFSET 0.000000 8.198502 5.703100
									CHANNELS 3 Xrotation Yrotation Zrotation
									JOINT HeadTop_End
									{
										OFFSET 0.000000 17.760803 13.332701
										CHANNELS 3 Xrotation Yrotation Zrotation
										End Site
										{
											OFFSET 0 0 0
										}
									}
								}
							}
						}
						JOINT LeftShoulder_virtual
						{
							OFFSET 0.000000 0.000000 0.000000
							CHANNELS 3 Xrotation Yrotation Zrotation
							JOINT LeftShoulder
							{
								OFFSET 6.292450 5.785301 -0.669000
								CHANNELS 3 Xrotation Yrotation Zrotation
								JOINT LeftShoulder_split
								{
									OFFSET 6.292450 5.785301 -0.669000
									CHANNELS 3 Xrotation Yrotation Zrotation
									JOINT LeftArm
									{
										OFFSET 13.907140 -6.093903 1.965100
										CHANNELS 3 Xrotation Yrotation Zrotation
										JOINT LeftForeArm
										{
											OFFSET 34.140198 0.000000 0.000000
											CHANNELS 3 Xrotation Yrotation Zrotation
											JOINT LeftHand
											{
												OFFSET 40.960209 0.000000 0.000000
												CHANNELS 3 Xrotation Yrotation Zrotation
												End Site
												{
													OFFSET 0 0 0
												}
											}
										}
									}
								}
							}
						}
						JOINT RightShoulder_virtual
						{
							OFFSET 0.000000 0.000000 0.000000
							CHANNELS 3 Xrotation Yrotation Zrotation
							JOINT RightShoulder
							{
								OFFSET -6.292450 5.785301 -0.669000
								CHANNELS 3 Xrotation Yrotation Zrotation
								JOINT RightShoulder_split
								{
									OFFSET -6.292450 5.785301 -0.669000
									CHANNELS 3 Xrotation Yrotation Zrotation
									JOINT RightArm
									{
										OFFSET -13.907140 -6.093903 1.965100
										CHANNELS 3 Xrotation Yrotation Zrotation
										JOINT RightForeArm
										{
											OFFSET -34.140198 0.000000 0.000000
											CHANNELS 3 Xrotation Yrotation Zrotation
											JOINT RightHand
											{
												OFFSET -40.960209 0.000000 0.000000
												CHANNELS 3 Xrotation Yrotation Zrotation
												End Site
												{
													OFFSET 0 0 0
												}
											}
										}
									}
								}
							}
						}
					}
				}
			}
		}
	}
}
MOTION
Frames: 8
Frame Time: 0.03333333
4.965911 111.494957 0.959206 0.000000 0.000000 0.000000 -15.098475 -56.060984 -8.629536 -25.193573 0.268037 12.660371 27.259642 -11.194150 1.220527 5.782765 -8.051291 0.806872 -10.699536 -4.861362 1.701073 0.000000 0.000000 0.000000 -11.702203 -53.915218 -6.891003 1.109430 -9.500863 -16.067117 25.570693 3.567726 -1.706328 -15.757147 -8.040470 29.082942 -3.805404 -1.186231 -0.852397 0.000000 0.000000 0.000000 -15.922720 -46.513131 -8.068792 6.480327 5.831296 -0.758634 10.728345 10.403493 -3.721669 0.456986 -1.711361 0.523149 0.000000 0.000000 0.000000 10.982887 9.526219 -4.106159 -5.904584 -3.655494 1.069257 -3.093498 20.551699 0.645304 0.000000 0.000000 0.000000 9.854128 9.381997 -3.426215 2.713613 1.445761 -3.663776 -5.819311 1.168534 -6.102803 -14.333210 -3.426104 -56.088667 2.150365 -54.049172 1.429226 0.000000 0.000000 0.000000 10.288364 9.888066 -3.060652 2.421646 8.439239 9.326732 -3.373748 4.995146 -0.350873 -1.059715 -28.034650 65.985399 -9.140414 51.946867 9.879984 0.000000 0.000000 0.000000 
5.306812 112.483505 0.707355 0.000000 0.000000 0.000000 -14.417064 -55.914005 -8.147383 -25.422114 0.305282 13.450505 26.950477 -11.412886 1.169277 5.332873 -8.471252 2.843216 -9.893370 -4.523423 1.076782 0.000000 0.000000 0.000000 -11.026458 -53.202461 -6.581469 1.398955 -9.622970 -16.319356 22.967706 3.509367 -1.852790 -15.946863 -7.327730 27.286334 -1.206502 -1.371162 -0.512292 0.000000 0.000000 0.000000 -15.741791 -46.723125 -8.418980 6.502603 5.762628 -0.625338 11.064390 10.385383 -3.684716 0.960589 -0.904014 0.452893 0.000000 0.000000 0.000000 11.020550 9.523593 -4.003191 -6.140966 -3.465674 1.200913 -2.939324 21.233854 0.411313 0.000000 0.000000 0.000000 10.363942 9.376676 -3.418594 2.735771 1.112414 -3.839561 -5.121641 1.321271 -5.871857 -12.938489 -2.153858 -57.169042 1.888251 -52.559317 1.416566 0.000000 0.000000 0.000000 10.846434 9.965102 -3.120759 2.344637 8.974092 10.171192 -4.031924 4.514410 -0.085891 -0.530606 -28.477099 65.681886 -8.718222 50.766682 9.633011 0.000000 0.000000 0.000000 
5.936177 112.755379 -0.689632 0.000000 0.000000 0.000000 -12.904574 -54.899428 -7.219980 -27.356328 0.250044 14.899803 26.668106 -11.403343 0.844682 5.678434 -8.440277 2.017890 -7.355421 -3.870421 0.130192 0.000000 0.000000 0.000000 -9.994904 -51.437082 -6.183381 -0.493770 -9.925612 -16.273411 23.238100 3.868401 -1.820653 -16.811307 -5.825629 22.470008 1.050386 -1.339756 -0.332897 0.000000 0.000000 0.000000 -15.181723 -46.000494 -8.508836 6.814267 5.371239 -0.732814 11.738367 10.240051 -3.642330 1.528197 -0.094355 0.448284 0.000000 0.000000 0.000000 11.425015 9.415137 -3.896339 -7.540103 -3.012263 1.487146 -2.973857 21.391883 0.226326 0.000000 0.000000 0.000000 11.190759 9.258880 -3.465090 2.695369 0.918230 -3.570573 -4.433212 0.977902 -4.451994 -12.386064 -0.679881 -59.588585 3.031049 -51.320846 2.847408 0.000000 0.000000 0.000000 11.815613 9.909343 -3.313323 2.430627 9.625848 11.076524 -4.357580 3.907039 0.015668 -1.378879 -26.770146 64.132826 -7.960638 49.902038 8.782345 0.000000 0.000000 0.000000 
6.606468 111.950356 -3.385292 0.000000 0.000000 0.000000 -10.999203 -53.531772 -6.264242 -30.542482 0.059365 16.244447 26.219199 -10.883922 0.584739 6.807994 -7.714501 -1.219430 -5.028367 -3.089629 -0.754950 0.000000 0.000000 0.000000 -8.448089 -48.959578 -5.515341 -4.631562 -10.738720 -15.859687 27.439167 4.671194 -1.513490 -16.739501 -3.391424 15.854602 0.741721 -1.282321 -0.222403 0.000000 0.000000 0.000000 -13.917340 -44.670574 -8.034683 7.255599 4.651892 -1.040187 12.695481 9.929061 -3.586331 1.624061 0.153969 0.797537 0.000000 0.000000 0.000000 12.241686 9.160547 -3.802343 -9.982283 -2.339130 1.924809 -3.343040 21.015201 0.151455 0.000000 0.000000 0.000000 12.332777 8.988438 -3.546995 2.633566 0.997284 -2.861646 -3.857178 0.455559 -2.463848 -13.730682 0.229900 -62.522705 4.565481 -49.554648 4.822934 0.000000 0.000000 0.000000 13.082974 9.665973 -3.555844 2.645640 10.312281 11.683897 -4.417910 3.184596 -0.155369 -3.864262 -23.213118 61.547333 -7.103214 50.032164 7.443298 0.000000 0.000000 0.000000 
7.123821 109.886276 -6.805649 0.000000 0.000000 0.000000 -8.602764 -51.818975 -5.120892 -34.691753 -0.186301 17.037851 25.563255 -9.573048 0.639216 8.580508 -6.669281 -5.320188 -4.250959 -2.326772 -1.289726 0.000000 0.000000 0.000000 -6.833539 -46.428829 -4.846374 -11.310345 -12.436495 -15.202305 35.033160 6.194651 -1.133710 -14.322950 -0.293180 9.379991 -3.621698 -1.332589 -0.217818 0.000000 0.000000 0.000000 -11.781806 -42.748368 -6.934843 7.686916 3.715149 -1.475590 13.946516 9.405955 -3.513063 1.804503 0.206246 1.356775 0.000000 0.000000 0.000000 13.441538 8.699363 -3.739455 -13.338584 -1.625318 2.498140 -4.302841 19.900593 0.277370 0.000000 0.000000 0.000000 13.753009 8.507954 -3.665874 2.573307 1.251209 -1.877865 -3.450871 0.009293 -0.784759 -16.619215 0.112276 -64.996012 5.266893 -47.098512 6.242867 0.000000 0.000000 0.000000 14.546645 9.185477 -3.772144 2.984315 10.924730 11.678623 -4.603372 2.612188 -0.390877 -7.230122 -18.378350 58.527522 -6.370131 51.821963 5.689107 0.000000 0.000000 0.000000 
7.158836 106.771675 -9.667362 0.000000 0.000000 0.000000 -5.466221 -49.152944 -3.553307 -40.287680 -0.370583 16.944168 25.033540 -7.634474 1.115559 11.040168 -6.137207 -8.599339 -5.053740 -1.725757 -1.372213 0.000000 0.000000 0.000000 -4.789848 -43.735279 -3.844801 -19.525271 -14.921851 -14.251874 44.595224 8.709082 -1.177052 -10.633988 3.032403 3.578498 -10.344007 -1.540117 -0.251421 0.000000 0.000000 0.000000 -8.539082 -40.363242 -5.326923 8.129084 2.689784 -1.891485 15.539387 8.663711 -3.467432 1.943358 0.310965 1.595138 0.000000 0.000000 0.000000 15.051850 8.045988 -3.715548 -17.334761 -1.141826 3.148262 -5.868098 18.194109 0.640979 0.000000 0.000000 0.000000 15.433992 7.837087 -3.837380 2.507023 1.589461 -0.818588 -3.098060 -0.435216 0.211577 -20.172489 -1.115047 -66.159125 4.520675 -44.783641 6.545657 0.000000 0.000000 0.000000 16.183269 8.484553 -3.945770 3.433655 11.425787 10.958026 -4.958546 2.344602 -0.798601 -10.539551 -13.595428 55.701197 -5.714959 55.342229 3.446010 0.000000 0.000000 0.000000 
6.698941 102.944977 -12.042744 0.000000 0.000000 0.000000 -1.593238 -45.163089 -1.692540 -47.804310 -0.469702 16.365208 25.282123 -5.506241 1.864209 14.141233 -6.854374 -9.650004 -5.864425 -1.396595 -1.330837 0.000000 0.000000 0.000000 -1.753438 -40.451594 -2.235276 -27.598626 -18.138428 -12.890496 54.304382 11.614679 -1.928003 -8.211951 6.168809 -2.711675 -15.888649 -1.799200 -0.205043 0.000000 0.000000 0.000000 -4.249218 -37.522143 -3.398416 8.601389 1.790149 -2.263895 17.438287 7.743815 -3.500972 2.032328 0.140362 1.590147 0.000000 0.000000 0.000000 16.995148 7.222793 -3.741555 -21.718576 -1.013161 3.693207 -8.004555 15.909930 1.292774 0.000000 0.000000 0.000000 17.312146 7.014258 -4.090226 2.473235 1.798368 0.090665 -2.605302 -1.255259 0.607632 -23.461732 -3.464639 -65.631431 2.360633 -43.871579 5.711609 0.000000 0.000000 0.000000 17.998354 7.627002 -4.082668 3.975471 11.959452 9.784251 -5.315223 2.897032 -1.362853 -13.248940 -10.113196 53.672422 -4.877152 60.246257 0.588583 0.000000 0.000000 0.000000 
5.709734 98.559868 -14.138874 0.000000 0.000000 0.000000 2.939239 -39.669698 0.239124 -57.715474 -0.970879 15.589509 27.108468 -3.872319 2.480997 17.714738 -9.469740 -8.728656 -6.162799 -1.302622 -1.210959 0.000000 0.000000 0.000000 2.105320 -36.222132 -0.335677 -34.039614 -21.699366 -10.852122 62.748149 14.134293 -3.172178 -8.983541 8.909599 -9.954933 -18.176390 -1.947034 -0.053156 0.000000 0.000000 0.000000 0.554805 -33.880102 -1.578805 9.151087 1.170842 -2.609396 19.578394 6.705433 -3.649973 1.852269 0.010219 1.310708 0.000000 0.000000 0.000000 19.187837 6.306309 -3.849612 -26.115536 -1.342289 3.980334 -10.550027 12.992594 2.117647 0.000000 0.000000 0.000000 19.305024 6.132516 -4.417950 2.463433 1.804221 0.792683 -2.307443 -2.122792 0.353342 -25.359439 -6.625712 -63.102076 -0.636530 -46.060535 3.906278 0.000000 0.000000 0.000000 19.988158 6.707373 -4.222747 4.578039 12.688502 8.260208 -5.377542 4.096193 -2.022221 -14.960230 -8.591587 52.503575 -3.459815 66.088815 -3.058560 0.000000 0.000000 0.000000 
